<svg version="1.1" id="Layer_1" xmlns="http://www.w3.org/2000/svg" xmlns:xlink="http://www.w3.org/1999/xlink" x="0px" y="0px"
	 width="100%" viewBox="0 0 842 672" enable-background="new 0 0 842 672" xml:space="preserve">
<path fill="#FFFFFF" opacity="1.000000" stroke="none" 
	d="
M843.000000,664.000000 
	C843.000000,666.999573 843.000000,669.999207 843.000000,672.999084 
	C562.372375,672.999390 281.744720,672.999390 1.058535,672.999390 
	C1.058535,449.069855 1.058535,225.139679 1.058535,1.104758 
	C281.558197,1.104758 562.116455,1.104758 843.000000,1.104758 
	C843.000000,220.361267 843.000000,439.722687 842.610718,659.450439 
	C841.158936,659.854370 840.096436,659.891846 838.966797,659.797913 
	C838.899597,659.666443 838.715637,659.435669 838.799133,658.945984 
	C838.926880,656.126465 839.009827,653.796570 839.010010,651.466736 
	C839.016479,552.716675 839.015625,453.966644 839.015320,355.216583 
	C839.015259,331.070282 838.936829,306.923492 839.094482,282.778229 
	C839.118347,279.129364 838.392517,277.384308 834.523865,276.152405 
	C796.080322,263.910431 757.722046,251.400681 719.348145,238.940353 
	C701.989563,233.303894 684.632202,227.662552 667.316589,221.896454 
	C663.608582,220.661682 660.083374,218.877762 656.709839,217.118286 
	C673.246460,202.038193 689.547241,187.186661 706.449524,171.787079 
	C683.531189,164.484421 661.454529,157.449936 638.768127,150.221191 
	C640.166565,156.606888 641.367249,161.950089 642.504089,167.306839 
	C646.020081,183.875168 649.511780,200.448669 652.634521,216.981674 
	C632.854370,210.675262 613.447449,204.423325 594.051941,198.135986 
	C555.372681,185.597534 516.686707,173.079803 478.028809,160.475967 
	C451.372620,151.785080 424.785309,142.882416 398.118134,134.225632 
	C374.917877,126.694275 351.627563,119.440514 328.416260,111.942688 
	C306.959229,105.011536 285.560760,97.899239 264.112335,90.941177 
	C262.613220,90.454842 260.913971,90.585472 259.286591,90.457634 
	C259.265411,90.486069 259.201416,90.516586 259.054413,90.154625 
	C257.421783,89.091148 255.990570,88.224945 254.442230,87.713196 
	C235.689346,81.515022 216.928207,75.341537 198.151474,69.216019 
	C169.584976,59.896790 141.013382,50.593029 112.427795,41.332596 
	C78.957512,30.489746 45.467773,19.707010 11.991567,8.882433 
	C5.042146,6.635328 5.044684,6.603465 5.044684,13.644360 
	C5.044694,143.230743 5.045450,272.817139 5.059826,402.403534 
	C5.060047,404.396362 5.233508,406.389221 5.373085,408.589081 
	C5.433274,409.078949 5.420444,409.360596 5.297535,410.092133 
	C5.462947,415.032196 5.712383,419.521149 5.942636,424.383789 
	C5.933071,425.505859 5.942689,426.254242 5.939794,427.402466 
	C5.937107,428.868896 5.946934,429.935486 5.946494,431.335114 
	C5.943861,432.112366 5.951495,432.556549 5.949249,433.375793 
	C5.948402,434.501129 5.957434,435.251434 5.956502,436.376526 
	C5.954464,437.501282 5.962390,438.251251 5.959149,439.334473 
	C5.956058,440.112213 5.964131,440.556732 5.961918,441.334808 
	C5.958924,442.113312 5.966218,442.558258 5.964977,443.402954 
	C5.966432,444.868866 5.976422,445.935059 5.978640,447.334473 
	C5.976100,448.112244 5.981331,448.556732 5.978473,449.401123 
	C5.976230,450.867767 5.982079,451.934509 5.980641,453.401215 
	C5.978322,454.868073 5.983288,455.934967 5.982549,457.401245 
	C5.978866,458.865448 5.980888,459.930298 5.706887,461.268066 
	C5.621900,464.026733 5.812936,466.512390 5.998533,469.426636 
	C5.996441,471.569733 5.999790,473.284241 6.000157,475.447510 
	C5.995067,483.708130 5.991026,483.720032 13.304895,486.202057 
	C18.923088,488.108673 24.542971,490.011292 30.179752,491.861938 
	C47.634808,497.592743 65.072098,503.379547 82.566139,508.989136 
	C98.916061,514.231873 115.381424,519.117493 131.702866,524.445496 
	C155.011780,532.054565 178.197784,540.040161 201.506927,547.648499 
	C224.628372,555.195618 247.863083,562.395203 271.000641,569.893738 
	C294.298340,577.444153 317.521301,585.224976 340.806885,592.813110 
	C365.828644,600.967102 390.891266,608.995544 415.924774,617.113586 
	C443.644348,626.102539 471.351440,635.130066 499.063324,644.142761 
	C512.141174,648.395935 525.230347,652.615540 538.270691,656.981018 
	C539.342468,657.339844 540.077576,658.704407 540.509521,659.685181 
	C361.455719,659.768616 182.861572,659.768616 4.318090,659.768616 
	C3.241220,665.751465 7.408255,663.836670 9.582825,663.837463 
	C214.896667,663.912537 420.210541,663.897217 625.524414,663.908386 
	C698.016296,663.912354 770.508118,663.967957 843.000000,664.000000 
M124.764969,570.696533 
	C119.946754,566.925293 115.719551,567.033997 110.649185,571.786987 
	C101.605202,580.264893 98.165314,591.166443 98.398087,603.251282 
	C98.474693,607.228455 99.619827,611.372742 104.032326,613.001953 
	C108.489563,614.647827 112.232674,612.547485 115.361794,609.674438 
	C122.092796,603.494202 125.598526,595.567871 127.258507,586.675781 
	C128.265182,581.283325 128.316833,576.117798 124.764969,570.696533 
z"/>
<path fill="#2C2A2B" opacity="1.000000" stroke="none" 
	d="
M843.000000,663.600037 
	C770.508118,663.967957 698.016296,663.912354 625.524414,663.908386 
	C420.210541,663.897217 214.896667,663.912537 9.582825,663.837463 
	C7.408255,663.836670 3.241220,665.751465 4.318090,659.768616 
	C182.861572,659.768616 361.455719,659.768616 540.970642,659.784851 
	C550.921204,659.723877 559.950989,659.646667 569.441040,659.665771 
	C575.599731,659.697937 581.298157,659.633728 587.456055,659.665649 
	C594.939148,659.698792 601.962891,659.635681 609.442383,659.666626 
	C613.927673,659.696167 617.957153,659.631775 622.440002,659.661499 
	C626.591492,659.694702 630.289673,659.633850 634.430786,659.666016 
	C637.578674,659.696411 640.283569,659.633850 643.435608,659.663391 
	C646.922607,659.694763 649.962463,659.634033 653.458252,659.666138 
	C658.271423,659.698547 662.628662,659.638123 667.380005,659.669434 
	C668.846008,659.701355 669.917847,659.641602 671.437378,659.671509 
	C674.919983,659.700195 677.955078,659.639099 681.361511,659.667236 
	C682.489807,659.697876 683.246643,659.639343 684.453003,659.671997 
	C688.264587,659.700745 691.626709,659.638306 695.360229,659.666016 
	C696.488892,659.698059 697.246155,659.639893 698.459595,659.671509 
	C703.277466,659.697449 707.639221,659.633606 712.444946,659.662842 
	C717.266907,659.686157 721.644836,659.616333 726.415771,659.650513 
	C740.843933,659.820496 754.879028,659.886475 769.373047,659.994507 
	C774.266479,660.348206 778.699524,660.900818 783.135925,660.928528 
	C800.051819,661.034241 816.968811,661.000610 833.885010,660.924927 
	C835.602783,660.917236 837.317749,660.276367 839.033997,659.929382 
	C840.096436,659.891846 841.158936,659.854370 842.610718,659.908447 
	C843.000000,661.066711 843.000000,662.133362 843.000000,663.600037 
z"/>
<path fill="#B8E5FA" opacity="1.000000" stroke="none" 
	d="
M656.473999,217.346832 
	C660.083374,218.877762 663.608582,220.661682 667.316589,221.896454 
	C684.632202,227.662552 701.989563,233.303894 719.348145,238.940353 
	C757.722046,251.400681 796.080322,263.910431 834.523865,276.152405 
	C838.392517,277.384308 839.118347,279.129364 839.094482,282.778229 
	C838.936829,306.923492 839.015259,331.070282 839.015320,355.216583 
	C839.015625,453.966644 839.016479,552.716675 839.010010,651.466736 
	C839.009827,653.796570 838.926880,656.126465 838.362305,659.054810 
	C821.184998,659.668152 804.525574,659.847290 787.872742,659.593262 
	C783.143616,659.521118 778.239380,658.790222 773.744568,657.340637 
	C714.136658,638.116516 654.588379,618.707581 595.023499,599.350281 
	C400.218231,536.042603 205.412811,472.735565 10.598542,409.455688 
	C8.903646,408.905151 7.086299,408.731598 5.326122,408.382050 
	C5.233508,406.389221 5.060047,404.396362 5.059826,402.403534 
	C5.045450,272.817139 5.044694,143.230743 5.044684,13.644360 
	C5.044684,6.603465 5.042146,6.635328 11.991567,8.882433 
	C45.467773,19.707010 78.957512,30.489746 112.427795,41.332596 
	C141.013382,50.593029 169.584976,59.896790 198.151474,69.216019 
	C216.928207,75.341537 235.689346,81.515022 254.442230,87.713196 
	C255.990570,88.224945 257.421783,89.091148 259.002197,90.505310 
	C255.690826,102.764229 252.284622,114.310516 248.800476,126.121017 
	C251.285355,125.374588 253.884430,124.593849 257.060730,123.639717 
	C257.060730,125.880844 257.060791,127.652214 257.060730,129.423584 
	C257.059204,167.393417 257.057007,205.363251 257.059082,243.333084 
	C257.059143,244.664078 256.877136,246.056519 257.217377,247.300690 
	C257.392853,247.942383 258.487885,248.589554 259.252930,248.715683 
	C259.704346,248.790100 260.681519,247.921143 260.793640,247.352478 
	C261.047089,246.067154 260.929718,244.704941 260.929871,243.373993 
	C260.933807,205.570694 260.933563,167.767395 260.934052,129.964096 
	C260.934082,127.998131 260.934082,126.032166 260.934082,123.534119 
	C264.155365,124.519493 266.884918,125.354446 269.268829,126.083679 
	C265.897644,114.016830 262.602692,102.223015 259.307770,90.429199 
	C260.913971,90.585472 262.613220,90.454842 264.112335,90.941177 
	C285.560760,97.899239 306.959229,105.011536 328.416260,111.942688 
	C351.627563,119.440514 374.917877,126.694275 398.118134,134.225632 
	C424.785309,142.882416 451.372620,151.785080 478.028809,160.475967 
	C516.686707,173.079803 555.372681,185.597534 594.051941,198.135986 
	C613.447449,204.423325 632.854370,210.675262 652.838501,217.221924 
	C654.438599,217.449371 655.456299,217.398102 656.473999,217.346832 
M250.959579,304.917358 
	C250.959579,304.917358 250.985794,305.004120 251.059875,305.135040 
	C251.059875,305.135040 250.813919,305.085449 250.813919,305.085449 
	C250.813919,305.085449 251.001007,305.017792 250.959579,304.917358 
M268.125122,274.659851 
	C268.318878,275.342773 268.512634,276.025665 268.222260,277.181244 
	C266.273987,281.398163 264.325714,285.615082 261.948975,290.759369 
	C260.851471,288.754272 260.400208,287.929810 259.927887,286.286224 
	C259.146271,283.232666 258.549530,280.117096 257.549438,277.136841 
	C254.105331,266.873352 255.661194,268.392517 245.707581,270.256958 
	C245.637314,270.270142 245.600891,270.463837 245.726624,270.200439 
	C247.574402,271.453491 250.409485,272.305573 250.933228,273.911469 
	C253.588760,282.053772 255.644333,290.391785 257.933807,298.747559 
	C258.646118,297.770142 259.922424,296.018768 261.785889,293.917114 
	C264.483032,288.591431 267.180206,283.265717 270.162170,277.306580 
	C270.459045,275.360687 271.084534,273.384766 270.910645,271.481903 
	C270.826935,270.565582 269.355072,269.505737 268.282867,269.052826 
	C267.652161,268.786377 265.836975,269.567627 265.829956,269.904205 
	C265.807251,270.994934 266.373749,272.097961 266.934998,273.699707 
	C267.257599,273.855835 267.580200,274.011993 268.125122,274.659851 
M685.440674,402.498688 
	C684.935303,398.717987 684.651184,394.890320 683.861389,391.169983 
	C683.091309,387.542450 683.372864,384.724701 687.372131,383.403564 
	C682.761597,383.403564 678.151001,383.403564 674.239746,383.403564 
	C675.237488,385.488464 676.686829,387.442627 677.115540,389.599609 
	C678.923645,398.697754 680.427429,407.856384 681.940918,417.663605 
	C682.040405,418.099945 682.139954,418.536316 682.198608,419.612885 
	C682.440063,420.419312 682.681519,421.225739 682.853577,422.795898 
	C683.109314,423.894257 683.365051,424.992584 683.939392,427.459442 
	C685.414185,424.757477 686.168823,423.374878 687.161011,421.765930 
	C687.161011,421.765930 687.184265,421.438660 687.759216,421.036652 
	C695.510376,408.403320 703.261536,395.770020 710.844482,383.410889 
	C707.797546,383.410889 704.182251,383.410889 701.829895,383.410889 
	C702.302673,385.466919 703.680298,387.826721 703.008545,389.131287 
	C698.908142,397.094788 694.381348,404.841187 689.908081,412.608917 
	C688.544800,414.976257 687.460754,414.319427 686.912048,411.336151 
	C686.785645,410.901855 686.659302,410.467560 686.609558,409.277740 
	C686.168579,407.292419 685.727661,405.307098 685.440674,402.498688 
M568.776184,368.874542 
	C528.631287,355.835907 488.486359,342.797272 448.416992,329.783203 
	C444.928925,337.406952 444.932434,337.396118 451.869263,339.641510 
	C496.826355,354.193634 541.783997,368.743866 586.732483,383.322662 
	C589.633911,384.263702 592.459839,385.437622 595.753845,386.664490 
	C594.127686,389.065308 592.936584,390.823792 591.224731,393.351074 
	C610.130920,395.323456 628.514404,397.241272 646.897888,399.159119 
	C646.972595,398.740295 647.047302,398.321503 647.122009,397.902710 
	C631.084229,388.670258 615.046448,379.437805 598.512573,369.919769 
	C598.512573,373.206238 598.512573,375.553375 598.512573,378.427673 
	C588.486572,375.184021 579.016785,372.120300 568.776184,368.874542 
M257.057190,354.500000 
	C257.057190,387.574707 257.057190,420.649414 257.057190,454.132019 
	C253.807480,453.112213 251.114990,452.267273 248.718475,451.515198 
	C252.261566,463.246155 255.724838,474.712860 259.147888,486.046326 
	C262.626678,474.497559 266.081665,463.027954 269.597595,451.356018 
	C266.734985,452.346893 264.122955,453.251038 260.877686,454.374390 
	C260.877686,410.195282 260.877686,366.668518 260.877686,323.141785 
	C260.315247,322.902618 259.752838,322.663452 259.190399,322.424286 
	C258.483368,323.621613 257.186432,324.807617 257.163177,326.018066 
	C256.987244,335.176025 257.061218,344.338745 257.057190,354.500000 
M668.866089,247.438644 
	C676.737671,249.956955 684.609253,252.475266 692.812256,255.099609 
	C693.247742,253.689575 693.602356,252.541214 694.017395,251.197235 
	C663.500061,241.449768 633.350830,231.819870 603.182556,222.183868 
	C600.738647,225.311905 602.329895,226.266251 605.007812,227.111328 
	C626.057434,233.754059 647.082642,240.473999 668.866089,247.438644 
M650.610107,262.705658 
	C655.976501,264.406464 661.366821,266.036194 666.699402,267.837219 
	C669.479553,268.776215 670.686401,268.002106 670.562012,264.738770 
	C652.467651,258.933228 634.380188,253.082657 616.228821,247.437500 
	C615.262207,247.136887 613.756531,248.569321 612.501831,249.194977 
	C612.687195,249.683899 612.872498,250.172806 613.057861,250.661713 
	C625.333374,254.567734 637.608948,258.473755 650.610107,262.705658 
M647.977966,278.808807 
	C640.927673,276.459137 633.824097,274.254913 626.849243,271.699310 
	C623.289734,270.395111 623.489624,272.534119 623.062073,274.841431 
	C630.411438,277.205048 637.505981,279.446411 644.569641,281.781219 
	C646.905518,282.553284 648.079590,281.913727 647.977966,278.808807 
M245.624969,310.096252 
	C247.110245,309.448761 248.595535,308.801300 250.080811,308.153809 
	C250.006195,307.581970 249.931580,307.010132 249.856964,306.438293 
	C247.584076,306.268585 245.311203,306.098877 243.038315,305.929169 
	C243.653702,307.294037 244.269104,308.658905 245.624969,310.096252 
M254.732254,302.246643 
	C254.785553,302.310089 254.838852,302.373535 254.892136,302.436981 
	C254.747849,302.380157 254.603561,302.323334 254.732254,302.246643 
z"/>
<path fill="#C4C5C6" opacity="1.000000" stroke="none" 
	d="
M768.914185,659.952454 
	C754.879028,659.886475 740.843933,659.820496 726.389893,659.236206 
	C724.357300,657.529968 722.911865,655.840759 721.103149,655.233643 
	C706.978455,650.492676 692.785034,645.956116 678.610474,641.363892 
	C672.008301,639.224976 665.408264,637.078918 658.794006,634.977783 
	C644.298950,630.373169 629.758545,625.907776 615.306213,621.173340 
	C601.812500,616.753174 588.451965,611.926147 574.954163,607.519104 
	C558.614746,602.184265 542.180786,597.139771 525.809998,591.900085 
	C511.463470,587.308411 497.145172,582.628357 482.818970,577.973206 
	C468.636536,573.364868 454.459442,568.740173 440.280701,564.120483 
	C423.758881,558.737366 407.249115,553.316895 390.711456,547.982849 
	C383.028320,545.504761 375.241913,543.340820 367.590057,540.773010 
	C353.487213,536.040344 339.509491,530.928833 325.363007,526.334229 
	C315.776642,523.220642 305.913269,520.963257 296.313782,517.886230 
	C283.432251,513.757263 270.708527,509.138794 257.874756,504.857239 
	C246.283173,500.990082 234.618347,497.342926 223.015442,493.509064 
	C208.713303,488.783386 194.475754,483.860321 180.148911,479.211700 
	C160.135559,472.717957 140.048203,466.452484 120.025002,459.988739 
	C103.794876,454.749451 87.627052,449.317444 71.404633,444.053986 
	C58.186501,439.765289 44.956390,435.509094 31.678135,431.411682 
	C23.156166,428.782043 14.537267,426.466492 5.961820,424.010132 
	C5.712383,419.521149 5.462947,415.032196 5.618086,410.253906 
	C6.779059,410.300507 7.512230,410.707977 8.295156,410.962128 
	C61.090042,428.100952 113.897400,445.201355 166.685898,462.359772 
	C337.230011,517.793518 507.767761,573.246643 678.306763,628.696228 
	C707.239014,638.103394 736.172668,647.506470 765.071899,657.014343 
	C766.518311,657.490234 767.640869,658.950500 768.914185,659.952454 
z"/>
<path fill="#F2F1F1" opacity="1.000000" stroke="none" 
	d="
M568.980774,659.569458 
	C559.950989,659.646667 550.921204,659.723877 541.430298,659.701416 
	C540.077576,658.704407 539.342468,657.339844 538.270691,656.981018 
	C525.230347,652.615540 512.141174,648.395935 499.063324,644.142761 
	C471.351440,635.130066 443.644348,626.102539 415.924774,617.113586 
	C390.891266,608.995544 365.828644,600.967102 340.806885,592.813110 
	C317.521301,585.224976 294.298340,577.444153 271.000641,569.893738 
	C247.863083,562.395203 224.628372,555.195618 201.506927,547.648499 
	C178.197784,540.040161 155.011780,532.054565 131.702866,524.445496 
	C115.381424,519.117493 98.916061,514.231873 82.566139,508.989136 
	C65.072098,503.379547 47.634808,497.592743 30.179752,491.861938 
	C24.542971,490.011292 18.923088,488.108673 13.304895,486.202057 
	C5.991026,483.720032 5.995067,483.708130 6.405810,475.448792 
	C17.400826,478.269775 28.011204,481.462952 38.566833,484.827911 
	C49.107040,488.187866 59.578178,491.763947 70.105446,495.165314 
	C83.172363,499.387177 96.255165,503.560730 109.353531,507.683929 
	C114.058228,509.164917 118.886894,510.264923 123.556328,511.842590 
	C134.179230,515.431824 144.741028,519.202087 155.322021,522.914856 
	C158.126205,523.898865 160.873444,525.058899 163.709122,525.936951 
	C177.591965,530.235779 191.540573,534.326965 205.379410,538.761597 
	C218.595337,542.996582 231.684982,547.623962 244.868149,551.963440 
	C252.894699,554.605530 261.018005,556.952881 269.053253,559.569580 
	C279.592834,563.001770 290.069427,566.627380 300.607910,570.063110 
	C313.206146,574.170410 325.876740,578.057922 338.450470,582.237793 
	C351.778473,586.668396 364.962341,591.539185 378.330750,595.839783 
	C395.768097,601.449341 413.369720,606.547119 430.818604,612.122009 
	C450.656189,618.459900 470.393677,625.110474 490.193451,631.567627 
	C501.018311,635.097778 511.895172,638.468445 522.724915,641.983948 
	C537.336304,646.726807 551.940430,651.494141 566.491272,656.417847 
	C567.554810,656.777710 568.161621,658.487366 568.980774,659.569458 
z"/>
<path fill="#E6E7E8" opacity="1.000000" stroke="none" 
	d="
M608.986633,659.572632 
	C601.962891,659.635681 594.939148,659.698792 587.439453,659.321167 
	C585.187805,657.596985 583.589844,655.767517 581.606567,655.122070 
	C571.705688,651.900024 561.710449,648.966187 551.732483,645.983948 
	C549.207947,645.229431 546.567932,644.837036 544.080688,643.986633 
	C538.032043,641.918335 532.080139,639.564941 526.018982,637.536255 
	C517.767273,634.774475 509.433960,632.257568 501.165100,629.545837 
	C489.422729,625.695007 477.727905,621.698608 465.975372,617.879578 
	C448.038422,612.050903 430.056671,606.360107 412.119263,600.532837 
	C402.508118,597.410522 392.980499,594.030212 383.360077,590.937805 
	C371.533356,587.136230 359.581299,583.715027 347.809387,579.754944 
	C336.786133,576.046692 325.985474,571.678223 314.971436,567.940369 
	C309.511749,566.087524 303.722534,565.226013 298.204712,563.520447 
	C283.392395,558.941589 268.577118,554.353088 253.893021,549.384277 
	C239.630402,544.558105 225.565414,539.150330 211.336853,534.219543 
	C206.540741,532.557495 201.419815,531.841553 196.603409,530.227539 
	C185.032257,526.349854 173.629486,521.960999 162.017960,518.214905 
	C148.027893,513.701355 133.810028,509.890167 119.840736,505.316956 
	C103.102921,499.837433 86.589890,493.671478 69.854111,488.185364 
	C56.734947,483.884796 43.427708,480.157196 30.198755,476.192627 
	C22.138985,473.777252 14.069237,471.395142 6.003974,468.998077 
	C5.812936,466.512390 5.621900,464.026733 6.085630,461.310913 
	C18.325562,464.946991 29.875202,468.923981 41.503716,472.655151 
	C61.997540,479.230988 82.552536,485.615906 103.057953,492.155945 
	C127.672470,500.006500 152.274780,507.895935 176.858307,515.843018 
	C197.675201,522.572388 218.453293,529.421875 239.256836,536.192749 
	C263.041412,543.933716 286.841370,551.627441 310.622864,559.377869 
	C329.970428,565.683167 349.301849,572.038025 368.638214,578.377625 
	C390.665619,585.599548 412.674438,592.878479 434.722382,600.037109 
	C448.413208,604.482300 462.198456,608.637573 475.875244,613.124451 
	C495.381409,619.523682 514.799011,626.192932 534.305542,632.590881 
	C557.761414,640.284058 581.288147,647.761658 604.721313,655.522278 
	C606.405518,656.080078 607.576843,658.186340 608.986633,659.572632 
z"/>
<path fill="#ECECEC" opacity="1.000000" stroke="none" 
	d="
M5.998534,469.426636 
	C14.069237,471.395142 22.138985,473.777252 30.198755,476.192627 
	C43.427708,480.157196 56.734947,483.884796 69.854111,488.185364 
	C86.589890,493.671478 103.102921,499.837433 119.840736,505.316956 
	C133.810028,509.890167 148.027893,513.701355 162.017960,518.214905 
	C173.629486,521.960999 185.032257,526.349854 196.603409,530.227539 
	C201.419815,531.841553 206.540741,532.557495 211.336853,534.219543 
	C225.565414,539.150330 239.630402,544.558105 253.893021,549.384277 
	C268.577118,554.353088 283.392395,558.941589 298.204712,563.520447 
	C303.722534,565.226013 309.511749,566.087524 314.971436,567.940369 
	C325.985474,571.678223 336.786133,576.046692 347.809387,579.754944 
	C359.581299,583.715027 371.533356,587.136230 383.360077,590.937805 
	C392.980499,594.030212 402.508118,597.410522 412.119263,600.532837 
	C430.056671,606.360107 448.038422,612.050903 465.975372,617.879578 
	C477.727905,621.698608 489.422729,625.695007 501.165100,629.545837 
	C509.433960,632.257568 517.767273,634.774475 526.018982,637.536255 
	C532.080139,639.564941 538.032043,641.918335 544.080688,643.986633 
	C546.567932,644.837036 549.207947,645.229431 551.732483,645.983948 
	C561.710449,648.966187 571.705688,651.900024 581.606567,655.122070 
	C583.589844,655.767517 585.187805,657.596985 586.980042,659.224976 
	C581.298157,659.633728 575.599731,659.697937 569.441040,659.665771 
	C568.161621,658.487366 567.554810,656.777710 566.491272,656.417847 
	C551.940430,651.494141 537.336304,646.726807 522.724915,641.983948 
	C511.895172,638.468445 501.018311,635.097778 490.193451,631.567627 
	C470.393677,625.110474 450.656189,618.459900 430.818604,612.122009 
	C413.369720,606.547119 395.768097,601.449341 378.330750,595.839783 
	C364.962341,591.539185 351.778473,586.668396 338.450470,582.237793 
	C325.876740,578.057922 313.206146,574.170410 300.607910,570.063110 
	C290.069427,566.627380 279.592834,563.001770 269.053253,559.569580 
	C261.018005,556.952881 252.894699,554.605530 244.868149,551.963440 
	C231.684982,547.623962 218.595337,542.996582 205.379410,538.761597 
	C191.540573,534.326965 177.591965,530.235779 163.709122,525.936951 
	C160.873444,525.058899 158.126205,523.898865 155.322021,522.914856 
	C144.741028,519.202087 134.179230,515.431824 123.556328,511.842590 
	C118.886894,510.264923 114.058228,509.164917 109.353531,507.683929 
	C96.255165,503.560730 83.172363,499.387177 70.105446,495.165314 
	C59.578178,491.763947 49.107040,488.187866 38.566833,484.827911 
	C28.011204,481.462952 17.400826,478.269775 6.408791,475.000061 
	C5.999790,473.284241 5.996441,471.569733 5.998534,469.426636 
z"/>
<path fill="#CDCED0" opacity="1.000000" stroke="none" 
	d="
M5.942636,424.383789 
	C14.537267,426.466492 23.156166,428.782043 31.678135,431.411682 
	C44.956390,435.509094 58.186501,439.765289 71.404633,444.053986 
	C87.627052,449.317444 103.794876,454.749451 120.025002,459.988739 
	C140.048203,466.452484 160.135559,472.717957 180.148911,479.211700 
	C194.475754,483.860321 208.713303,488.783386 223.015442,493.509064 
	C234.618347,497.342926 246.283173,500.990082 257.874756,504.857239 
	C270.708527,509.138794 283.432251,513.757263 296.313782,517.886230 
	C305.913269,520.963257 315.776642,523.220642 325.363007,526.334229 
	C339.509491,530.928833 353.487213,536.040344 367.590057,540.773010 
	C375.241913,543.340820 383.028320,545.504761 390.711456,547.982849 
	C407.249115,553.316895 423.758881,558.737366 440.280701,564.120483 
	C454.459442,568.740173 468.636536,573.364868 482.818970,577.973206 
	C497.145172,582.628357 511.463470,587.308411 525.809998,591.900085 
	C542.180786,597.139771 558.614746,602.184265 574.954163,607.519104 
	C588.451965,611.926147 601.812500,616.753174 615.306213,621.173340 
	C629.758545,625.907776 644.298950,630.373169 658.794006,634.977783 
	C665.408264,637.078918 672.008301,639.224976 678.610474,641.363892 
	C692.785034,645.956116 706.978455,650.492676 721.103149,655.233643 
	C722.911865,655.840759 724.357300,657.529968 725.996948,659.132263 
	C721.644836,659.616333 717.266907,659.686157 712.431213,659.307495 
	C710.718628,657.770630 709.635803,656.231079 708.177917,655.675232 
	C702.929565,653.673950 697.576111,651.937500 692.223511,650.222351 
	C676.173584,645.079224 660.073364,640.091431 644.053040,634.858215 
	C627.391113,629.415466 610.815796,623.708008 594.172485,618.207581 
	C577.985168,612.857727 561.768982,607.594727 545.548523,602.345886 
	C525.099304,595.728699 504.634094,589.161011 484.173584,582.578735 
	C466.412170,576.864746 448.641785,571.178589 430.886505,565.445557 
	C417.494476,561.121460 404.113190,556.763733 390.739838,552.382202 
	C378.923523,548.510803 367.111450,544.625427 355.323029,540.670166 
	C347.974945,538.204712 340.739166,535.387512 333.336609,533.105591 
	C323.087494,529.946228 312.656860,527.368958 302.436981,524.123474 
	C291.565094,520.670959 280.911438,516.532959 270.047943,513.051880 
	C256.828217,508.815826 243.433182,505.126678 230.215683,500.884125 
	C214.297913,495.774811 198.487732,490.330292 182.629684,485.034760 
	C163.820908,478.753937 145.049667,472.357513 126.191078,466.229980 
	C104.150566,459.068604 81.998352,452.250885 59.960369,445.081879 
	C41.907646,439.209290 23.951347,433.040283 5.952305,427.002686 
	C5.942689,426.254242 5.933071,425.505859 5.942636,424.383789 
z"/>
<path fill="#E3E4E6" opacity="1.000000" stroke="none" 
	d="
M609.442383,659.666626 
	C607.576843,658.186340 606.405518,656.080078 604.721313,655.522278 
	C581.288147,647.761658 557.761414,640.284058 534.305542,632.590881 
	C514.799011,626.192932 495.381409,619.523682 475.875244,613.124451 
	C462.198456,608.637573 448.413208,604.482300 434.722382,600.037109 
	C412.674438,592.878479 390.665619,585.599548 368.638214,578.377625 
	C349.301849,572.038025 329.970428,565.683167 310.622864,559.377869 
	C286.841370,551.627441 263.041412,543.933716 239.256836,536.192749 
	C218.453293,529.421875 197.675201,522.572388 176.858307,515.843018 
	C152.274780,507.895935 127.672470,500.006500 103.057953,492.155945 
	C82.552536,485.615906 61.997540,479.230988 41.503716,472.655151 
	C29.875202,468.923981 18.325562,464.946991 6.361654,461.037933 
	C5.980888,459.930298 5.978866,458.865448 6.381844,457.407898 
	C9.980055,457.894012 13.213520,458.649292 16.359240,459.673950 
	C27.712685,463.372253 39.002178,467.269501 50.380989,470.886566 
	C62.673172,474.793976 75.106491,478.264771 87.355804,482.297882 
	C105.614456,488.309570 123.709290,494.819885 141.978592,500.797882 
	C160.401825,506.826202 179.003906,512.307251 197.434891,518.312805 
	C219.839294,525.613220 242.105087,533.338867 264.507416,540.645813 
	C287.835480,548.254517 311.265015,555.551514 334.631165,563.044128 
	C355.123901,569.615417 375.603607,576.227966 396.063782,582.899780 
	C410.565155,587.628540 425.007721,592.537476 439.506256,597.274902 
	C462.509521,604.791321 485.533936,612.243225 508.556335,619.701111 
	C531.585327,627.160950 554.635498,634.555969 577.651672,642.055115 
	C590.731201,646.316650 603.798218,650.624573 616.774536,655.185791 
	C618.777832,655.889954 620.262268,658.069885 621.986694,659.567383 
	C617.957153,659.631775 613.927673,659.696167 609.442383,659.666626 
z"/>
<path fill="#E0E1E3" opacity="1.000000" stroke="none" 
	d="
M622.440002,659.661438 
	C620.262268,658.069885 618.777832,655.889954 616.774536,655.185791 
	C603.798218,650.624573 590.731201,646.316650 577.651672,642.055115 
	C554.635498,634.555969 531.585327,627.160950 508.556335,619.701111 
	C485.533936,612.243225 462.509521,604.791321 439.506256,597.274902 
	C425.007721,592.537476 410.565155,587.628540 396.063782,582.899780 
	C375.603607,576.227966 355.123901,569.615417 334.631165,563.044128 
	C311.265015,555.551514 287.835480,548.254517 264.507416,540.645813 
	C242.105087,533.338867 219.839294,525.613220 197.434891,518.312805 
	C179.003906,512.307251 160.401825,506.826202 141.978592,500.797882 
	C123.709290,494.819885 105.614456,488.309570 87.355804,482.297882 
	C75.106491,478.264771 62.673172,474.793976 50.380989,470.886566 
	C39.002178,467.269501 27.712685,463.372253 16.359240,459.673950 
	C13.213520,458.649292 9.980055,457.894012 6.387549,457.008484 
	C5.983288,455.934967 5.978322,454.868073 6.397626,453.400879 
	C8.607162,453.305267 10.459710,453.400238 12.167090,453.947845 
	C26.201416,458.449066 40.221172,462.996735 54.220982,467.604370 
	C69.812614,472.735931 85.361076,477.998901 100.961189,483.104279 
	C114.169174,487.426819 127.432892,491.578705 140.655746,495.856201 
	C155.151596,500.545471 169.627029,505.297821 184.114868,510.011963 
	C195.431519,513.694275 206.757339,517.348328 218.072144,521.036255 
	C230.172897,524.980286 242.258240,528.971680 254.363983,532.900269 
	C264.098083,536.059204 273.874481,539.088989 283.590088,542.303040 
	C289.882172,544.384460 296.050751,546.843689 302.359375,548.869873 
	C314.154266,552.657959 326.042786,556.155212 337.831787,559.960999 
	C347.609344,563.117432 357.262268,566.659851 367.040741,569.813416 
	C374.920471,572.354614 382.949707,574.431458 390.834320,576.958557 
	C408.331146,582.566406 425.776215,588.335632 443.247223,594.024231 
	C461.203644,599.870728 479.176208,605.668091 497.121704,611.547852 
	C507.664978,615.002319 518.144836,618.650879 528.696716,622.078369 
	C545.995178,627.697327 563.330627,633.202515 580.647339,638.765320 
	C590.249268,641.849915 599.860474,644.906982 609.438354,648.064697 
	C616.510559,650.396423 623.596069,652.715332 630.533203,655.407166 
	C632.002380,655.977234 632.852539,658.142639 633.987854,659.572998 
	C630.289673,659.633850 626.591492,659.694702 622.440002,659.661438 
z"/>
<path fill="#30383F" opacity="1.000000" stroke="none" 
	d="
M769.373047,659.994507 
	C767.640869,658.950500 766.518311,657.490234 765.071899,657.014343 
	C736.172668,647.506470 707.239014,638.103394 678.306763,628.696228 
	C507.767761,573.246643 337.230011,517.793518 166.685898,462.359772 
	C113.897400,445.201355 61.090042,428.100952 8.295156,410.962128 
	C7.512230,410.707977 6.779059,410.300507 5.702110,409.802826 
	C5.420444,409.360596 5.433274,409.078949 5.373085,408.589081 
	C7.086299,408.731598 8.903646,408.905151 10.598542,409.455688 
	C205.412811,472.735565 400.218231,536.042603 595.023499,599.350281 
	C654.588379,618.707581 714.136658,638.116516 773.744568,657.340637 
	C778.239380,658.790222 783.143616,659.521118 787.872742,659.593262 
	C804.525574,659.847290 821.184998,659.668152 838.278809,659.544434 
	C838.715637,659.435669 838.899597,659.666443 838.966797,659.797913 
	C837.317749,660.276367 835.602783,660.917236 833.885010,660.924927 
	C816.968811,661.000610 800.051819,661.034241 783.135925,660.928528 
	C778.699524,660.900818 774.266479,660.348206 769.373047,659.994507 
z"/>
<path fill="#D9DADC" opacity="1.000000" stroke="none" 
	d="
M666.985962,659.577698 
	C662.628662,659.638123 658.271423,659.698547 653.445862,659.315063 
	C652.009521,657.628967 651.295288,655.771912 650.029968,655.249390 
	C644.063843,652.785767 638.032166,650.409241 631.865967,648.516418 
	C618.449646,644.398010 604.861572,640.831970 591.483459,636.598389 
	C575.253052,631.462097 559.143616,625.938904 543.026001,620.453186 
	C531.139893,616.407654 519.324707,612.153687 507.477631,607.993408 
	C506.850189,607.773132 506.225067,607.544128 505.590118,607.347534 
	C491.664948,603.036499 477.702942,598.840637 463.822845,594.389282 
	C450.731598,590.190796 437.762421,585.612061 424.674713,581.402222 
	C405.772522,575.322021 386.773834,569.540833 367.886810,563.414673 
	C349.474976,557.442505 331.179382,551.112793 312.781647,545.096313 
	C295.988800,539.604553 279.116089,534.357422 262.299927,528.936401 
	C248.147614,524.374146 234.005569,519.778076 219.896942,515.082825 
	C207.657867,511.009705 195.528824,506.599976 183.250885,502.650726 
	C157.370590,494.326141 131.396332,486.293701 105.515991,477.969208 
	C89.550438,472.833771 73.723366,467.268463 57.765556,462.108154 
	C46.121105,458.342651 34.385498,454.853058 22.649294,451.379791 
	C17.145132,449.750854 11.543736,448.450500 5.986411,447.001221 
	C5.976422,445.935059 5.966432,444.868866 6.362761,443.408844 
	C17.287197,446.549438 27.748423,450.265625 38.335457,453.579926 
	C59.503368,460.206665 80.786835,466.465942 101.933052,473.159760 
	C117.437057,478.067535 132.784637,483.467621 148.227005,488.572418 
	C163.819107,493.726746 179.444046,498.781738 195.050812,503.891754 
	C202.134186,506.211029 209.189835,508.616486 216.290787,510.880249 
	C229.380814,515.053284 242.522308,519.066284 255.590897,523.304626 
	C267.119232,527.043457 278.527527,531.155945 290.080933,534.812500 
	C301.091217,538.297180 312.308136,541.139099 323.276428,544.743774 
	C338.850342,549.861816 354.209930,555.632629 369.787689,560.738464 
	C391.987335,568.014709 414.334320,574.840393 436.556793,582.048401 
	C454.374084,587.827576 472.060333,594.010681 489.876312,599.793945 
	C510.869751,606.608582 531.973999,613.081909 552.967590,619.896362 
	C571.890137,626.038574 590.701416,632.522888 609.611084,638.705811 
	C627.569702,644.577637 645.608337,650.205322 663.554810,656.113281 
	C664.929688,656.565918 665.852844,658.390686 666.985962,659.577698 
z"/>
<path fill="#DDDEE0" opacity="1.000000" stroke="none" 
	d="
M634.430786,659.666016 
	C632.852539,658.142639 632.002380,655.977234 630.533203,655.407166 
	C623.596069,652.715332 616.510559,650.396423 609.438354,648.064697 
	C599.860474,644.906982 590.249268,641.849915 580.647339,638.765320 
	C563.330627,633.202515 545.995178,627.697327 528.696716,622.078369 
	C518.144836,618.650879 507.664978,615.002319 497.121704,611.547852 
	C479.176208,605.668091 461.203644,599.870728 443.247223,594.024231 
	C425.776215,588.335632 408.331146,582.566406 390.834320,576.958557 
	C382.949707,574.431458 374.920471,572.354614 367.040741,569.813416 
	C357.262268,566.659851 347.609344,563.117432 337.831787,559.960999 
	C326.042786,556.155212 314.154266,552.657959 302.359375,548.869873 
	C296.050751,546.843689 289.882172,544.384460 283.590088,542.303040 
	C273.874481,539.088989 264.098083,536.059204 254.363983,532.900269 
	C242.258240,528.971680 230.172897,524.980286 218.072144,521.036255 
	C206.757339,517.348328 195.431519,513.694275 184.114868,510.011963 
	C169.627029,505.297821 155.151596,500.545471 140.655746,495.856201 
	C127.432892,491.578705 114.169174,487.426819 100.961189,483.104279 
	C85.361076,477.998901 69.812614,472.735931 54.220982,467.604370 
	C40.221172,462.996735 26.201416,458.449066 12.167090,453.947845 
	C10.459710,453.400238 8.607162,453.305267 6.404912,453.000854 
	C5.982079,451.934509 5.976230,450.867767 6.378946,449.401306 
	C8.069117,449.280090 9.394557,449.431732 10.625542,449.856873 
	C22.836824,454.074219 34.957169,458.570251 47.248730,462.536530 
	C70.533340,470.050110 93.943771,477.173218 117.241760,484.646118 
	C129.353546,488.530945 141.300262,492.927887 153.387543,496.892273 
	C169.077530,502.038300 184.819351,507.027985 200.567139,511.995300 
	C207.491867,514.179565 214.548187,515.956787 221.435577,518.247131 
	C233.682678,522.319763 245.785095,526.832153 258.059875,530.815979 
	C276.447052,536.783691 294.984772,542.288940 313.358337,548.297119 
	C331.329376,554.173645 349.109558,560.635132 367.091827,566.475708 
	C390.538391,574.091125 414.120361,581.288513 437.606720,588.782837 
	C450.066528,592.758667 462.439514,597.005676 474.865997,601.086792 
	C490.092712,606.087585 505.336426,611.036682 520.568115,616.022461 
	C524.345642,617.259033 528.076660,618.644653 531.878174,619.799927 
	C542.455444,623.014282 553.119690,625.954346 563.636108,629.353821 
	C577.157837,633.724792 590.553223,638.484924 604.032776,642.988281 
	C615.343567,646.767090 626.757812,650.249268 637.976318,654.279846 
	C640.017334,655.013123 641.336243,657.756042 642.988525,659.571289 
	C640.283569,659.633850 637.578674,659.696411 634.430786,659.666016 
z"/>
<path fill="#CFD0D2" opacity="1.000000" stroke="none" 
	d="
M5.939791,427.402496 
	C23.951347,433.040283 41.907646,439.209290 59.960369,445.081879 
	C81.998352,452.250885 104.150566,459.068604 126.191078,466.229980 
	C145.049667,472.357513 163.820908,478.753937 182.629684,485.034760 
	C198.487732,490.330292 214.297913,495.774811 230.215683,500.884125 
	C243.433182,505.126678 256.828217,508.815826 270.047943,513.051880 
	C280.911438,516.532959 291.565094,520.670959 302.436981,524.123474 
	C312.656860,527.368958 323.087494,529.946228 333.336609,533.105591 
	C340.739166,535.387512 347.974945,538.204712 355.323029,540.670166 
	C367.111450,544.625427 378.923523,548.510803 390.739838,552.382202 
	C404.113190,556.763733 417.494476,561.121460 430.886505,565.445557 
	C448.641785,571.178589 466.412170,576.864746 484.173584,582.578735 
	C504.634094,589.161011 525.099304,595.728699 545.548523,602.345886 
	C561.768982,607.594727 577.985168,612.857727 594.172485,618.207581 
	C610.815796,623.708008 627.391113,629.415466 644.053040,634.858215 
	C660.073364,640.091431 676.173584,645.079224 692.223511,650.222351 
	C697.576111,651.937500 702.929565,653.673950 708.177917,655.675232 
	C709.635803,656.231079 710.718628,657.770630 711.987244,659.214355 
	C707.639221,659.633606 703.277466,659.697449 698.456177,659.303223 
	C697.038696,657.532104 696.359741,655.638245 695.068970,655.018555 
	C691.643555,653.373840 687.986877,652.179871 684.364014,650.982605 
	C661.390991,643.390320 638.413940,635.809631 615.415649,628.294250 
	C586.422424,618.819946 557.419312,609.375610 528.396851,599.991272 
	C515.498047,595.820557 502.512543,591.917297 489.623962,587.716003 
	C483.476318,585.711975 477.547272,583.021362 471.370636,581.125671 
	C460.539246,577.801453 449.503601,575.129944 438.718384,571.670959 
	C425.342407,567.381104 412.181580,562.424622 398.840912,558.019287 
	C383.413879,552.924927 367.873413,548.175293 352.417816,543.166077 
	C340.124878,539.181885 327.899811,534.988770 315.618835,530.967224 
	C298.759003,525.446289 281.867676,520.021667 265.003723,514.513245 
	C254.456436,511.068085 243.950485,507.496002 233.396820,504.070679 
	C224.124771,501.061340 214.804031,498.202301 205.522583,495.221466 
	C202.850571,494.363373 200.282898,493.167938 197.593750,492.377869 
	C188.424408,489.683777 179.188156,487.213959 170.042740,484.442993 
	C161.876144,481.968658 154.439011,477.847626 145.698517,476.336670 
	C135.582474,474.588013 125.977036,469.922363 116.126343,466.592896 
	C102.787857,462.084534 89.443687,457.591675 76.071083,453.185883 
	C62.060120,448.569794 48.033005,444.000458 33.973907,439.533539 
	C24.670467,436.577637 15.298215,433.838348 5.956762,431.002075 
	C5.946934,429.935486 5.937107,428.868896 5.939791,427.402496 
z"/>
<path fill="#DCDDDF" opacity="1.000000" stroke="none" 
	d="
M643.435608,659.663330 
	C641.336243,657.756042 640.017334,655.013123 637.976318,654.279846 
	C626.757812,650.249268 615.343567,646.767090 604.032776,642.988281 
	C590.553223,638.484924 577.157837,633.724792 563.636108,629.353821 
	C553.119690,625.954346 542.455444,623.014282 531.878174,619.799927 
	C528.076660,618.644653 524.345642,617.259033 520.568115,616.022461 
	C505.336426,611.036682 490.092712,606.087585 474.865997,601.086792 
	C462.439514,597.005676 450.066528,592.758667 437.606720,588.782837 
	C414.120361,581.288513 390.538391,574.091125 367.091827,566.475708 
	C349.109558,560.635132 331.329376,554.173645 313.358337,548.297119 
	C294.984772,542.288940 276.447052,536.783691 258.059875,530.815979 
	C245.785095,526.832153 233.682678,522.319763 221.435577,518.247131 
	C214.548187,515.956787 207.491867,514.179565 200.567139,511.995300 
	C184.819351,507.027985 169.077530,502.038300 153.387543,496.892273 
	C141.300262,492.927887 129.353546,488.530945 117.241760,484.646118 
	C93.943771,477.173218 70.533340,470.050110 47.248730,462.536530 
	C34.957169,458.570251 22.836824,454.074219 10.625542,449.856873 
	C9.394557,449.431732 8.069117,449.280090 6.387037,449.001373 
	C5.981331,448.556732 5.976100,448.112244 5.978639,447.334473 
	C11.543736,448.450500 17.145132,449.750854 22.649294,451.379791 
	C34.385498,454.853058 46.121105,458.342651 57.765556,462.108154 
	C73.723366,467.268463 89.550438,472.833771 105.515991,477.969208 
	C131.396332,486.293701 157.370590,494.326141 183.250885,502.650726 
	C195.528824,506.599976 207.657867,511.009705 219.896942,515.082825 
	C234.005569,519.778076 248.147614,524.374146 262.299927,528.936401 
	C279.116089,534.357422 295.988800,539.604553 312.781647,545.096313 
	C331.179382,551.112793 349.474976,557.442505 367.886810,563.414673 
	C386.773834,569.540833 405.772522,575.322021 424.674713,581.402222 
	C437.762421,585.612061 450.731598,590.190796 463.822845,594.389282 
	C477.702942,598.840637 491.664948,603.036499 505.590118,607.347534 
	C506.225067,607.544128 506.850189,607.773132 507.477631,607.993408 
	C519.324707,612.153687 531.139893,616.407654 543.026001,620.453186 
	C559.143616,625.938904 575.253052,631.462097 591.483459,636.598389 
	C604.861572,640.831970 618.449646,644.398010 631.865967,648.516418 
	C638.032166,650.409241 644.063843,652.785767 650.029968,655.249390 
	C651.295288,655.771912 652.009521,657.628967 652.989990,659.222229 
	C649.962463,659.634033 646.922607,659.694763 643.435608,659.663330 
z"/>
<path fill="#D2D3D5" opacity="1.000000" stroke="none" 
	d="
M694.988892,659.575806 
	C691.626709,659.638306 688.264587,659.700745 684.449463,659.303589 
	C683.366516,657.617859 683.037476,655.747620 682.050171,655.286255 
	C679.083618,653.899963 675.872131,653.026611 672.735107,652.018738 
	C663.808594,649.151123 654.870483,646.319702 645.939148,643.466980 
	C636.362122,640.407898 626.790466,637.331787 617.198669,634.319702 
	C616.899780,634.225891 616.403992,634.759094 615.666687,635.000000 
	C614.888916,635.000000 614.444458,635.000000 613.941772,634.643127 
	C610.303528,632.828125 606.798279,631.138855 603.130737,629.950562 
	C584.443604,623.895752 565.714417,617.970581 546.666687,612.000000 
	C545.888916,612.000000 545.444458,612.000000 544.936401,611.639099 
	C543.932861,610.696350 543.063232,609.900513 542.042419,609.565369 
	C530.083252,605.638428 518.118591,601.726501 506.120850,597.919250 
	C493.498016,593.913635 480.799835,590.142883 468.204803,586.053284 
	C455.786926,582.021057 443.471680,577.673035 431.064606,573.606384 
	C429.880035,573.218018 428.362793,573.844604 426.654602,573.968018 
	C425.206146,573.624084 424.103058,573.312012 422.945801,572.649658 
	C421.580322,571.366882 420.396149,570.065674 418.936798,569.562683 
	C410.366211,566.608704 401.744568,563.800110 393.114777,561.021179 
	C382.913818,557.736389 372.723114,554.411011 362.455627,551.345459 
	C357.725769,549.933289 352.823883,549.097229 347.649536,547.997559 
	C346.199371,547.663452 345.099670,547.331726 343.940186,546.645081 
	C336.303223,543.574036 328.729858,540.847107 321.132294,538.189270 
	C320.880249,538.101135 320.382996,538.713928 319.666687,539.000000 
	C318.888885,539.000000 318.444458,539.000000 317.943756,538.644958 
	C310.698425,535.735107 303.509644,533.179321 296.313873,530.643372 
	C296.258057,530.623718 296.106689,530.875122 295.666656,531.000000 
	C294.888885,531.000000 294.444458,531.000000 293.941803,530.643188 
	C292.525085,529.462952 291.261597,528.361572 289.793152,527.859863 
	C277.113190,523.527832 264.423798,519.219482 251.684235,515.066589 
	C230.931488,508.301605 210.152252,501.617004 189.357986,494.980560 
	C176.595840,490.907562 163.745804,487.107727 151.006592,482.965729 
	C137.654770,478.624573 124.402008,473.979126 111.060829,469.604248 
	C109.877708,469.216248 108.361504,469.843994 106.654648,469.968140 
	C105.206299,469.624176 104.103302,469.312103 102.946014,468.649658 
	C96.473557,465.885498 90.063828,463.448395 83.616020,461.116577 
	C83.233810,460.978394 82.545738,461.685974 81.666718,462.000000 
	C80.889061,462.000000 80.444679,462.000000 79.946320,461.650513 
	C78.280334,460.245392 76.799774,458.816681 75.034920,458.194885 
	C63.877014,454.263763 52.694592,450.391113 41.427406,446.789612 
	C38.802410,445.950562 35.818573,446.234161 32.666542,446.000793 
	C31.888828,446.000275 31.444420,446.000153 30.792046,445.720459 
	C28.389465,444.627258 26.194849,443.813629 23.940319,442.645081 
	C17.909090,440.194000 11.937778,438.097870 5.966466,436.001709 
	C5.957434,435.251434 5.948402,434.501129 6.329781,433.415314 
	C11.619827,434.631531 16.541327,436.117859 21.415142,437.746826 
	C38.514370,443.461975 55.560310,449.339142 72.697578,454.937164 
	C87.143517,459.656036 101.726250,463.955475 116.179886,468.651581 
	C135.077393,474.791595 153.862961,481.277496 172.777756,487.362518 
	C196.079590,494.858887 219.523209,501.916718 242.797119,509.497009 
	C264.553192,516.582825 286.132141,524.210876 307.858887,531.388855 
	C318.839386,535.016541 330.037933,537.983032 341.024750,541.592712 
	C357.996124,547.168640 374.821228,553.190552 391.800964,558.740112 
	C406.384827,563.506653 421.146545,567.727844 435.743683,572.455383 
	C460.474701,580.464966 485.110779,588.767517 509.837341,596.791138 
	C535.485718,605.113892 561.209167,613.205139 586.871582,621.485168 
	C605.781677,627.586548 624.656311,633.798340 643.528137,640.017395 
	C659.720947,645.353455 675.903748,650.721741 692.032959,656.245178 
	C693.255127,656.663696 694.014404,658.433899 694.988892,659.575806 
z"/>
<path fill="#D7D8DA" opacity="1.000000" stroke="none" 
	d="
M31.000011,446.000000 
	C31.444420,446.000153 31.888828,446.000275 32.774559,446.219849 
	C33.415344,446.712524 33.676563,446.899414 34.056107,447.353027 
	C35.146667,448.448761 36.078693,449.484314 37.231522,449.885681 
	C43.761574,452.159393 50.329483,454.327942 56.912460,456.445374 
	C71.992416,461.295807 87.100342,466.059601 102.169487,470.943237 
	C105.784630,472.114838 109.233658,473.808075 112.861961,474.928192 
	C120.904289,477.411041 129.078812,479.477722 137.076065,482.091553 
	C147.261597,485.420654 157.288284,489.233551 167.454849,492.623688 
	C173.875336,494.764679 180.465118,496.393494 186.910797,498.464203 
	C200.779709,502.919617 214.617645,507.472687 228.443573,512.060242 
	C240.637177,516.106079 252.783508,520.295044 264.994141,524.287964 
	C266.172089,524.673218 267.657379,524.118408 269.333313,524.000000 
	C270.111115,524.000000 270.555542,524.000000 271.030457,524.292969 
	C271.707245,524.723938 272.353638,524.862000 273.333313,525.000000 
	C274.111115,525.000000 274.555542,525.000000 275.054260,525.350586 
	C275.819519,526.341492 276.424591,527.283447 277.257721,527.575989 
	C286.265503,530.739502 295.303467,533.817871 304.361420,536.834778 
	C304.769653,536.970703 305.447632,536.296692 306.333313,536.000000 
	C307.111115,536.000000 307.555542,536.000000 308.057617,536.355469 
	C312.820038,538.450195 317.485992,540.304626 322.236816,541.907532 
	C338.169525,547.282959 354.116119,552.618530 370.088623,557.874573 
	C385.794434,563.042908 401.538269,568.095642 417.265350,573.199341 
	C439.571472,580.438110 461.879364,587.671570 484.183014,594.918030 
	C499.162689,599.784973 514.122620,604.713013 529.116028,609.537292 
	C549.398315,616.063232 569.704224,622.515869 590.416626,629.000000 
	C592.222229,629.000000 593.611084,629.000000 595.054199,629.350586 
	C596.729736,630.758972 598.218933,632.207336 599.994812,632.808105 
	C608.305847,635.619507 616.692566,638.207703 625.058289,640.856506 
	C639.067871,645.292297 653.082275,649.712952 667.094238,654.141418 
	C669.749634,654.980713 671.488403,656.481567 670.989746,659.581787 
	C669.917847,659.641602 668.846008,659.701355 667.380005,659.669434 
	C665.852844,658.390686 664.929688,656.565918 663.554810,656.113281 
	C645.608337,650.205322 627.569702,644.577637 609.611084,638.705811 
	C590.701416,632.522888 571.890137,626.038574 552.967590,619.896362 
	C531.973999,613.081909 510.869751,606.608582 489.876312,599.793945 
	C472.060333,594.010681 454.374084,587.827576 436.556793,582.048401 
	C414.334320,574.840393 391.987335,568.014709 369.787689,560.738464 
	C354.209930,555.632629 338.850342,549.861816 323.276428,544.743774 
	C312.308136,541.139099 301.091217,538.297180 290.080933,534.812500 
	C278.527527,531.155945 267.119232,527.043457 255.590897,523.304626 
	C242.522308,519.066284 229.380814,515.053284 216.290787,510.880249 
	C209.189835,508.616486 202.134186,506.211029 195.050812,503.891754 
	C179.444046,498.781738 163.819107,493.726746 148.227005,488.572418 
	C132.784637,483.467621 117.437057,478.067535 101.933052,473.159760 
	C80.786835,466.465942 59.503368,460.206665 38.335457,453.579926 
	C27.748423,450.265625 17.287197,446.549438 6.371295,443.009094 
	C5.966218,442.558258 5.958924,442.113312 6.379938,441.334473 
	C13.565585,442.677032 20.311966,444.400330 27.090265,445.987305 
	C28.326738,446.276764 29.693428,446.010010 31.000011,446.000000 
z"/>
<path fill="#D1D2D4" opacity="1.000000" stroke="none" 
	d="
M695.360229,659.666016 
	C694.014404,658.433899 693.255127,656.663696 692.032959,656.245178 
	C675.903748,650.721741 659.720947,645.353455 643.528137,640.017395 
	C624.656311,633.798340 605.781677,627.586548 586.871582,621.485168 
	C561.209167,613.205139 535.485718,605.113892 509.837341,596.791138 
	C485.110779,588.767517 460.474701,580.464966 435.743683,572.455383 
	C421.146545,567.727844 406.384827,563.506653 391.800964,558.740112 
	C374.821228,553.190552 357.996124,547.168640 341.024750,541.592712 
	C330.037933,537.983032 318.839386,535.016541 307.858887,531.388855 
	C286.132141,524.210876 264.553192,516.582825 242.797119,509.497009 
	C219.523209,501.916718 196.079590,494.858887 172.777756,487.362518 
	C153.862961,481.277496 135.077393,474.791595 116.179886,468.651581 
	C101.726250,463.955475 87.143517,459.656036 72.697578,454.937164 
	C55.560310,449.339142 38.514370,443.461975 21.415142,437.746826 
	C16.541327,436.117859 11.619827,434.631531 6.339660,433.040283 
	C5.951495,432.556549 5.943861,432.112366 5.946495,431.335114 
	C15.298215,433.838348 24.670467,436.577637 33.973907,439.533539 
	C48.033005,444.000458 62.060120,448.569794 76.071083,453.185883 
	C89.443687,457.591675 102.787857,462.084534 116.126343,466.592896 
	C125.977036,469.922363 135.582474,474.588013 145.698517,476.336670 
	C154.439011,477.847626 161.876144,481.968658 170.042740,484.442993 
	C179.188156,487.213959 188.424408,489.683777 197.593750,492.377869 
	C200.282898,493.167938 202.850571,494.363373 205.522583,495.221466 
	C214.804031,498.202301 224.124771,501.061340 233.396820,504.070679 
	C243.950485,507.496002 254.456436,511.068085 265.003723,514.513245 
	C281.867676,520.021667 298.759003,525.446289 315.618835,530.967224 
	C327.899811,534.988770 340.124878,539.181885 352.417816,543.166077 
	C367.873413,548.175293 383.413879,552.924927 398.840912,558.019287 
	C412.181580,562.424622 425.342407,567.381104 438.718384,571.670959 
	C449.503601,575.129944 460.539246,577.801453 471.370636,581.125671 
	C477.547272,583.021362 483.476318,585.711975 489.623962,587.716003 
	C502.512543,591.917297 515.498047,595.820557 528.396851,599.991272 
	C557.419312,609.375610 586.422424,618.819946 615.415649,628.294250 
	C638.413940,635.809631 661.390991,643.390320 684.364014,650.982605 
	C687.986877,652.179871 691.643555,653.373840 695.068970,655.018555 
	C696.359741,655.638245 697.038696,657.532104 698.000000,659.213440 
	C697.246155,659.639893 696.488892,659.698059 695.360229,659.666016 
z"/>
<path fill="#2E2D2D" opacity="1.000000" stroke="none" 
	d="
M656.709839,217.118286 
	C655.456299,217.398102 654.438599,217.449371 653.216919,217.260391 
	C649.511780,200.448669 646.020081,183.875168 642.504089,167.306839 
	C641.367249,161.950089 640.166565,156.606888 638.768127,150.221191 
	C661.454529,157.449936 683.531189,164.484421 706.449524,171.787079 
	C689.547241,187.186661 673.246460,202.038193 656.709839,217.118286 
M684.647705,186.151566 
	C689.143921,182.066650 693.640137,177.981735 698.545776,173.524857 
	C680.190918,167.688477 662.654236,162.112228 644.247620,156.259384 
	C648.407776,175.313889 652.308167,193.178452 656.387268,211.861710 
	C666.034790,203.091873 675.085693,194.864426 684.647705,186.151566 
z"/>
<path fill="#292D32" opacity="1.000000" stroke="none" 
	d="
M259.286591,90.457626 
	C262.602692,102.223015 265.897644,114.016830 269.268829,126.083679 
	C266.884918,125.354446 264.155365,124.519493 260.934082,123.534119 
	C260.934082,126.032166 260.934082,127.998131 260.934052,129.964096 
	C260.933563,167.767395 260.933807,205.570694 260.929871,243.373993 
	C260.929718,244.704941 261.047089,246.067154 260.793640,247.352478 
	C260.681519,247.921143 259.704346,248.790100 259.252930,248.715683 
	C258.487885,248.589554 257.392853,247.942383 257.217377,247.300690 
	C256.877136,246.056519 257.059143,244.664078 257.059082,243.333084 
	C257.057007,205.363251 257.059204,167.393417 257.060730,129.423584 
	C257.060791,127.652214 257.060730,125.880844 257.060730,123.639717 
	C253.884430,124.593849 251.285355,125.374588 248.800476,126.121017 
	C252.284622,114.310516 255.690826,102.764229 259.149231,90.867264 
	C259.201416,90.516586 259.265411,90.486069 259.286591,90.457626 
z"/>
<path fill="#2C2A2B" opacity="1.000000" stroke="none" 
	d="
M124.987579,571.009033 
	C128.316833,576.117798 128.265182,581.283325 127.258507,586.675781 
	C125.598526,595.567871 122.092796,603.494202 115.361794,609.674438 
	C112.232674,612.547485 108.489563,614.647827 104.032326,613.001953 
	C99.619827,611.372742 98.474693,607.228455 98.398087,603.251282 
	C98.165314,591.166443 101.605202,580.264893 110.649185,571.786987 
	C115.719551,567.033997 119.946754,566.925293 124.987579,571.009033 
M104.149933,599.968994 
	C104.052086,601.953796 103.593582,604.007690 103.956596,605.904297 
	C104.328667,607.848267 105.504654,609.638367 106.328812,611.495911 
	C108.262093,610.519836 111.029991,610.044983 111.973282,608.474365 
	C114.890259,603.617310 117.112129,598.342834 119.938942,592.542969 
	C114.567322,592.542969 110.492760,592.542969 106.034142,592.542969 
	C105.469040,594.684998 104.886467,596.893311 104.149933,599.968994 
M117.184021,589.083069 
	C118.384445,588.308655 120.394524,587.730713 120.638680,586.724304 
	C121.487457,583.225830 122.106804,579.571838 122.041573,575.990967 
	C122.005585,574.015442 120.429672,572.067871 119.547974,570.107727 
	C117.581100,571.063782 114.730492,571.502441 113.811676,573.072021 
	C110.960747,577.942261 108.843689,583.242126 106.109398,589.085754 
	C110.342834,589.085754 113.305374,589.085754 117.184021,589.083069 
z"/>
<path fill="#D5D6D8" opacity="1.000000" stroke="none" 
	d="
M30.792046,445.720459 
	C29.693428,446.010010 28.326738,446.276764 27.090265,445.987305 
	C20.311966,444.400330 13.565585,442.677032 6.390226,441.000885 
	C5.964131,440.556732 5.956058,440.112213 6.389603,439.333984 
	C12.554226,440.333496 18.277227,441.666748 24.000233,443.000000 
	C26.194849,443.813629 28.389465,444.627258 30.792046,445.720459 
z"/>
<path fill="#D4D5D7" opacity="1.000000" stroke="none" 
	d="
M23.940315,442.645081 
	C18.277227,441.666748 12.554226,440.333496 6.400769,439.000732 
	C5.962390,438.251251 5.954464,437.501282 5.956503,436.376526 
	C11.937778,438.097870 17.909090,440.194000 23.940315,442.645081 
z"/>
<path fill="#D5D6D8" opacity="1.000000" stroke="none" 
	d="
M671.437378,659.671509 
	C671.488403,656.481567 669.749634,654.980713 667.094238,654.141418 
	C653.082275,649.712952 639.067871,645.292297 625.058289,640.856506 
	C616.692566,638.207703 608.305847,635.619507 599.994812,632.808105 
	C598.218933,632.207336 596.729736,630.758972 595.424805,629.390076 
	C601.827393,631.052673 607.913696,633.026367 614.000000,635.000000 
	C614.444458,635.000000 614.888916,635.000000 615.878296,635.283020 
	C618.999939,636.669617 621.506836,637.991516 624.164612,638.841492 
	C642.060669,644.565063 660.005615,650.136658 677.871399,655.952087 
	C679.167114,656.373840 679.962219,658.333435 680.990112,659.578003 
	C677.955078,659.639099 674.919983,659.700195 671.437378,659.671509 
z"/>
<path fill="#D4D5D7" opacity="1.000000" stroke="none" 
	d="
M681.361511,659.667236 
	C679.962219,658.333435 679.167114,656.373840 677.871399,655.952087 
	C660.005615,650.136658 642.060669,644.565063 624.164612,638.841492 
	C621.506836,637.991516 618.999939,636.669617 616.211609,635.283020 
	C616.403992,634.759094 616.899780,634.225891 617.198669,634.319702 
	C626.790466,637.331787 636.362122,640.407898 645.939148,643.466980 
	C654.870483,646.319702 663.808594,649.151123 672.735107,652.018738 
	C675.872131,653.026611 679.083618,653.899963 682.050171,655.286255 
	C683.037476,655.747620 683.366516,657.617859 684.000000,659.212402 
	C683.246643,659.639343 682.489807,659.697876 681.361511,659.667236 
z"/>
<path fill="#0DACEA" opacity="1.000000" stroke="none" 
	d="
M569.161560,368.965576 
	C579.016785,372.120300 588.486572,375.184021 598.512573,378.427673 
	C598.512573,375.553375 598.512573,373.206238 598.512573,369.919769 
	C615.046448,379.437805 631.084229,388.670258 647.122009,397.902710 
	C647.047302,398.321503 646.972595,398.740295 646.897888,399.159119 
	C628.514404,397.241272 610.130920,395.323456 591.224731,393.351074 
	C592.936584,390.823792 594.127686,389.065308 595.753845,386.664490 
	C592.459839,385.437622 589.633911,384.263702 586.732483,383.322662 
	C541.783997,368.743866 496.826355,354.193634 451.869263,339.641510 
	C444.932434,337.396118 444.928925,337.406952 448.416992,329.783203 
	C488.486359,342.797272 528.631287,355.835907 569.161560,368.965576 
z"/>
<path fill="#292D32" opacity="1.000000" stroke="none" 
	d="
M257.057190,354.000000 
	C257.061218,344.338745 256.987244,335.176025 257.163177,326.018066 
	C257.186432,324.807617 258.483368,323.621613 259.190399,322.424286 
	C259.752838,322.663452 260.315247,322.902618 260.877686,323.141785 
	C260.877686,366.668518 260.877686,410.195282 260.877686,454.374390 
	C264.122955,453.251038 266.734985,452.346893 269.597595,451.356018 
	C266.081665,463.027954 262.626678,474.497559 259.147888,486.046326 
	C255.724838,474.712860 252.261566,463.246155 248.718475,451.515198 
	C251.114990,452.267273 253.807480,453.112213 257.057190,454.132019 
	C257.057190,420.649414 257.057190,387.574707 257.057190,354.000000 
z"/>
<path fill="#262D32" opacity="1.000000" stroke="none" 
	d="
M668.490723,247.304398 
	C647.082642,240.473999 626.057434,233.754059 605.007812,227.111328 
	C602.329895,226.266251 600.738647,225.311905 603.182556,222.183868 
	C633.350830,231.819870 663.500061,241.449768 694.017395,251.197235 
	C693.602356,252.541214 693.247742,253.689575 692.812256,255.099609 
	C684.609253,252.475266 676.737671,249.956955 668.490723,247.304398 
z"/>
<path fill="#262D32" opacity="1.000000" stroke="none" 
	d="
M650.247314,262.542725 
	C637.608948,258.473755 625.333374,254.567734 613.057861,250.661713 
	C612.872498,250.172806 612.687195,249.683899 612.501831,249.194977 
	C613.756531,248.569321 615.262207,247.136887 616.228821,247.437500 
	C634.380188,253.082657 652.467651,258.933228 670.562012,264.738770 
	C670.686401,268.002106 669.479553,268.776215 666.699402,267.837219 
	C661.366821,266.036194 655.976501,264.406464 650.247314,262.542725 
z"/>
<path fill="#272A2E" opacity="1.000000" stroke="none" 
	d="
M687.184265,421.438660 
	C687.184265,421.438660 687.161011,421.765930 686.642273,421.887634 
	C685.056641,422.016937 683.989807,422.024567 682.922913,422.032166 
	C682.681519,421.225739 682.440063,420.419312 682.402893,419.123047 
	C682.418945,418.086456 682.230774,417.539673 682.042603,416.992889 
	C680.427429,407.856384 678.923645,398.697754 677.115540,389.599609 
	C676.686829,387.442627 675.237488,385.488464 674.239746,383.403564 
	C678.151001,383.403564 682.761597,383.403564 687.372131,383.403564 
	C683.372864,384.724701 683.091309,387.542450 683.861389,391.169983 
	C684.651184,394.890320 684.935303,398.717987 685.284973,403.350830 
	C685.597168,406.146423 686.065002,408.089844 686.532898,410.033264 
	C686.659302,410.467560 686.785645,410.901855 686.656189,411.953369 
	C686.661682,415.526581 686.922974,418.482635 687.184265,421.438660 
z"/>
<path fill="#30383F" opacity="1.000000" stroke="none" 
	d="
M687.471741,421.237671 
	C686.922974,418.482635 686.661682,415.526581 686.620422,412.294586 
	C687.460754,414.319427 688.544800,414.976257 689.908081,412.608917 
	C694.381348,404.841187 698.908142,397.094788 703.008545,389.131287 
	C703.680298,387.826721 702.302673,385.466919 701.829895,383.410889 
	C704.182251,383.410889 707.797546,383.410889 710.844482,383.410889 
	C703.261536,395.770020 695.510376,408.403320 687.471741,421.237671 
z"/>
<path fill="#262D32" opacity="1.000000" stroke="none" 
	d="
M261.198730,294.267426 
	C259.922424,296.018768 258.646118,297.770142 257.933807,298.747559 
	C255.644333,290.391785 253.588760,282.053772 250.933228,273.911469 
	C250.409485,272.305573 247.574402,271.453491 245.726624,270.200439 
	C245.600891,270.463837 245.637314,270.270142 245.707581,270.256958 
	C255.661194,268.392517 254.105331,266.873352 257.549438,277.136841 
	C258.549530,280.117096 259.146271,283.232666 259.887268,287.102783 
	C260.297333,290.035339 260.748016,292.151398 261.198730,294.267426 
z"/>
<path fill="#262D32" opacity="1.000000" stroke="none" 
	d="
M648.063171,279.114960 
	C648.079590,281.913727 646.905518,282.553284 644.569641,281.781219 
	C637.505981,279.446411 630.411438,277.205048 623.062073,274.841431 
	C623.489624,272.534119 623.289734,270.395111 626.849243,271.699310 
	C633.824097,274.254913 640.927673,276.459137 648.063171,279.114960 
z"/>
<path fill="#435A65" opacity="1.000000" stroke="none" 
	d="
M261.492310,294.092285 
	C260.748016,292.151398 260.297333,290.035339 259.897797,287.512329 
	C260.400208,287.929810 260.851471,288.754272 261.948975,290.759369 
	C264.325714,285.615082 266.273987,281.398163 268.628418,277.183167 
	C269.315491,277.436737 269.596436,277.688385 269.877350,277.940033 
	C267.180206,283.265717 264.483032,288.591431 261.492310,294.092285 
z"/>
<path fill="#262D32" opacity="1.000000" stroke="none" 
	d="
M270.019775,277.623291 
	C269.596436,277.688385 269.315491,277.436737 268.870483,276.946838 
	C268.512634,276.025665 268.318878,275.342773 267.901855,274.160828 
	C267.356842,273.506592 267.035095,273.351410 266.713318,273.196228 
	C266.373749,272.097961 265.807251,270.994934 265.829956,269.904205 
	C265.836975,269.567627 267.652161,268.786377 268.282867,269.052826 
	C269.355072,269.505737 270.826935,270.565582 270.910645,271.481903 
	C271.084534,273.384766 270.459045,275.360687 270.019775,277.623291 
z"/>
<path fill="#262D32" opacity="1.000000" stroke="none" 
	d="
M245.254730,310.059998 
	C244.269104,308.658905 243.653702,307.294037 243.038315,305.929169 
	C245.311203,306.098877 247.584076,306.268585 249.856964,306.438293 
	C249.931580,307.010132 250.006195,307.581970 250.080811,308.153809 
	C248.595535,308.801300 247.110245,309.448761 245.254730,310.059998 
z"/>
<path fill="#30383F" opacity="1.000000" stroke="none" 
	d="
M682.888245,422.414032 
	C683.989807,422.024567 685.056641,422.016937 686.523499,422.000793 
	C686.168823,423.374878 685.414185,424.757477 683.939392,427.459442 
	C683.365051,424.992584 683.109314,423.894257 682.888245,422.414032 
z"/>
<path fill="#30383F" opacity="1.000000" stroke="none" 
	d="
M686.571228,409.655518 
	C686.065002,408.089844 685.597168,406.146423 685.208008,403.762390 
	C685.727661,405.307098 686.168579,407.292419 686.571228,409.655518 
z"/>
<path fill="#262D32" opacity="1.000000" stroke="none" 
	d="
M254.595764,302.256592 
	C254.603561,302.323334 254.747849,302.380157 254.892136,302.436981 
	C254.838852,302.373535 254.785553,302.310089 254.595764,302.256592 
z"/>
<path fill="#30383F" opacity="1.000000" stroke="none" 
	d="
M681.991760,417.328247 
	C682.230774,417.539673 682.418945,418.086456 682.423340,418.802917 
	C682.139954,418.536316 682.040405,418.099945 681.991760,417.328247 
z"/>
<path fill="#435A65" opacity="1.000000" stroke="none" 
	d="
M266.824158,273.447968 
	C267.035095,273.351410 267.356842,273.506592 267.790710,273.914978 
	C267.580200,274.011993 267.257599,273.855835 266.824158,273.447968 
z"/>
<path fill="#262D32" opacity="1.000000" stroke="none" 
	d="
M250.985794,305.004120 
	C250.985794,305.004120 250.959579,304.917358 250.985107,304.955505 
	C251.010620,304.993683 250.985794,305.004120 250.985794,305.004120 
z"/>
<path fill="#262D32" opacity="1.000000" stroke="none" 
	d="
M251.005814,305.005737 
	C251.001007,305.017792 250.813919,305.085449 250.813919,305.085449 
	C250.813919,305.085449 251.059875,305.135040 251.022827,305.069580 
	C250.985794,305.004120 251.010620,304.993683 251.005814,305.005737 
z"/>
<path fill="#D5D6D8" opacity="1.000000" stroke="none" 
	d="
M590.000000,629.000000 
	C569.704224,622.515869 549.398315,616.063232 529.116028,609.537292 
	C514.122620,604.713013 499.162689,599.784973 484.183014,594.918030 
	C461.879364,587.671570 439.571472,580.438110 417.265350,573.199341 
	C401.538269,568.095642 385.794434,563.042908 370.088623,557.874573 
	C354.116119,552.618530 338.169525,547.282959 322.236816,541.907532 
	C317.485992,540.304626 312.820038,538.450195 308.429932,536.396240 
	C311.829742,537.054260 314.914886,538.027161 318.000000,539.000000 
	C318.444458,539.000000 318.888885,539.000000 319.904114,539.274841 
	C328.316559,542.033142 336.158295,544.516541 344.000000,547.000000 
	C345.099670,547.331726 346.199371,547.663452 347.862976,548.281860 
	C350.409241,549.369385 352.350586,550.297058 354.380035,550.951538 
	C377.245544,558.325256 400.124603,565.656982 423.000000,573.000000 
	C424.103058,573.312012 425.206146,573.624084 426.873901,574.255981 
	C439.805084,578.720642 452.145447,582.945190 464.544220,586.990784 
	C481.991028,592.683594 499.453613,598.331238 516.963745,603.825134 
	C526.250000,606.738708 535.650879,609.286865 545.000000,612.000000 
	C545.444458,612.000000 545.888916,612.000000 546.729248,612.365234 
	C548.004272,613.410095 548.783264,614.408936 549.777771,614.720825 
	C561.691528,618.457153 573.658569,622.025208 585.550232,625.829041 
	C587.202576,626.357605 588.524902,627.917542 590.000000,629.000000 
z"/>
<path fill="#D5D6D8" opacity="1.000000" stroke="none" 
	d="
M269.000000,524.000000 
	C267.657379,524.118408 266.172089,524.673218 264.994141,524.287964 
	C252.783508,520.295044 240.637177,516.106079 228.443573,512.060242 
	C214.617645,507.472687 200.779709,502.919617 186.910797,498.464203 
	C180.465118,496.393494 173.875336,494.764679 167.454849,492.623688 
	C157.288284,489.233551 147.261597,485.420654 137.076065,482.091553 
	C129.078812,479.477722 120.904289,477.411041 112.861961,474.928192 
	C109.233658,473.808075 105.784630,472.114838 102.169487,470.943237 
	C87.100342,466.059601 71.992416,461.295807 56.912460,456.445374 
	C50.329483,454.327942 43.761574,452.159393 37.231522,449.885681 
	C36.078693,449.484314 35.146667,448.448761 34.434906,447.395416 
	C49.838196,452.056519 64.919250,457.028259 80.000305,462.000000 
	C80.444679,462.000000 80.889061,462.000000 81.896690,462.275726 
	C89.306732,464.700958 96.153519,466.850494 103.000305,469.000000 
	C104.103302,469.312103 105.206299,469.624176 106.870232,470.254028 
	C121.697861,475.345703 135.935501,480.208740 150.239227,484.868927 
	C165.195007,489.741516 180.211105,494.429260 195.206650,499.179443 
	C214.163361,505.184479 233.159470,511.068115 252.065842,517.227417 
	C257.833862,519.106506 263.362000,521.721863 269.000000,524.000000 
z"/>
<path fill="#D4D5D7" opacity="1.000000" stroke="none" 
	d="
M269.333313,524.000000 
	C263.362000,521.721863 257.833862,519.106506 252.065842,517.227417 
	C233.159470,511.068115 214.163361,505.184479 195.206650,499.179443 
	C180.211105,494.429260 165.195007,489.741516 150.239227,484.868927 
	C135.935501,480.208740 121.697861,475.345703 107.215584,470.285919 
	C108.361504,469.843994 109.877708,469.216248 111.060829,469.604248 
	C124.402008,473.979126 137.654770,478.624573 151.006592,482.965729 
	C163.745804,487.107727 176.595840,490.907562 189.357986,494.980560 
	C210.152252,501.617004 230.931488,508.301605 251.684235,515.066589 
	C264.423798,519.219482 277.113190,523.527832 289.793152,527.859863 
	C291.261597,528.361572 292.525085,529.462952 293.564941,530.601318 
	C287.164185,528.944214 281.082092,526.972107 275.000000,525.000000 
	C274.555542,525.000000 274.111115,525.000000 273.166382,524.754395 
	C272.110748,524.339233 271.555389,524.169617 271.000000,524.000000 
	C270.555542,524.000000 270.111115,524.000000 269.333313,524.000000 
z"/>
<path fill="#D4D5D7" opacity="1.000000" stroke="none" 
	d="
M544.936401,611.639099 
	C535.650879,609.286865 526.250000,606.738708 516.963745,603.825134 
	C499.453613,598.331238 481.991028,592.683594 464.544220,586.990784 
	C452.145447,582.945190 439.805084,578.720642 427.219299,574.287964 
	C428.362793,573.844604 429.880035,573.218018 431.064606,573.606384 
	C443.471680,577.673035 455.786926,582.021057 468.204803,586.053284 
	C480.799835,590.142883 493.498016,593.913635 506.120850,597.919250 
	C518.118591,601.726501 530.083252,605.638428 542.042419,609.565369 
	C543.063232,609.900513 543.932861,610.696350 544.936401,611.639099 
z"/>
<path fill="#D4D5D7" opacity="1.000000" stroke="none" 
	d="
M422.945801,572.649658 
	C400.124603,565.656982 377.245544,558.325256 354.380035,550.951538 
	C352.350586,550.297058 350.409241,549.369385 348.213470,548.284302 
	C352.823883,549.097229 357.725769,549.933289 362.455627,551.345459 
	C372.723114,554.411011 382.913818,557.736389 393.114777,561.021179 
	C401.744568,563.800110 410.366211,566.608704 418.936798,569.562683 
	C420.396149,570.065674 421.580322,571.366882 422.945801,572.649658 
z"/>
<path fill="#D4D5D7" opacity="1.000000" stroke="none" 
	d="
M590.416626,629.000000 
	C588.524902,627.917542 587.202576,626.357605 585.550232,625.829041 
	C573.658569,622.025208 561.691528,618.457153 549.777771,614.720825 
	C548.783264,614.408936 548.004272,613.410095 547.062561,612.365234 
	C565.714417,617.970581 584.443604,623.895752 603.130737,629.950562 
	C606.798279,631.138855 610.303528,632.828125 613.941772,634.643127 
	C607.913696,633.026367 601.827393,631.052673 595.370544,629.039551 
	C593.611084,629.000000 592.222229,629.000000 590.416626,629.000000 
z"/>
<path fill="#D4D5D7" opacity="1.000000" stroke="none" 
	d="
M79.946320,461.650513 
	C64.919250,457.028259 49.838196,452.056519 34.378342,447.042358 
	C33.676563,446.899414 33.415344,446.712524 33.107864,446.220276 
	C35.818573,446.234161 38.802410,445.950562 41.427406,446.789612 
	C52.694592,450.391113 63.877014,454.263763 75.034920,458.194885 
	C76.799774,458.816681 78.280334,460.245392 79.946320,461.650513 
z"/>
<path fill="#D5D6D8" opacity="1.000000" stroke="none" 
	d="
M275.054260,525.350586 
	C281.082092,526.972107 287.164185,528.944214 293.623138,530.958130 
	C294.444458,531.000000 294.888885,531.000000 295.875244,531.280518 
	C299.611420,533.040710 302.805725,534.520325 306.000000,536.000000 
	C305.447632,536.296692 304.769653,536.970703 304.361420,536.834778 
	C295.303467,533.817871 286.265503,530.739502 277.257721,527.575989 
	C276.424591,527.283447 275.819519,526.341492 275.054260,525.350586 
z"/>
<path fill="#D4D5D7" opacity="1.000000" stroke="none" 
	d="
M102.946014,468.649658 
	C96.153519,466.850494 89.306732,464.700958 82.229973,462.275726 
	C82.545738,461.685974 83.233810,460.978394 83.616020,461.116577 
	C90.063828,463.448395 96.473557,465.885498 102.946014,468.649658 
z"/>
<path fill="#D4D5D7" opacity="1.000000" stroke="none" 
	d="
M343.940186,546.645081 
	C336.158295,544.516541 328.316559,542.033142 320.237427,539.274841 
	C320.382996,538.713928 320.880249,538.101135 321.132294,538.189270 
	C328.729858,540.847107 336.303223,543.574036 343.940186,546.645081 
z"/>
<path fill="#D4D5D7" opacity="1.000000" stroke="none" 
	d="
M306.333313,536.000000 
	C302.805725,534.520325 299.611420,533.040710 296.208557,531.280518 
	C296.106689,530.875122 296.258057,530.623718 296.313873,530.643372 
	C303.509644,533.179321 310.698425,535.735107 317.943756,538.644958 
	C314.914886,538.027161 311.829742,537.054260 308.372314,536.040710 
	C307.555542,536.000000 307.111115,536.000000 306.333313,536.000000 
z"/>
<path fill="#D5D6D8" opacity="1.000000" stroke="none" 
	d="
M271.030457,524.292969 
	C271.555389,524.169617 272.110748,524.339233 272.833069,524.754395 
	C272.353638,524.862000 271.707245,524.723938 271.030457,524.292969 
z"/>
<path fill="#FCFBFB" opacity="1.000000" stroke="none" 
	d="
M684.392151,186.394287 
	C675.085693,194.864426 666.034790,203.091873 656.387268,211.861710 
	C652.308167,193.178452 648.407776,175.313889 644.247620,156.259384 
	C662.654236,162.112228 680.190918,167.688477 698.545776,173.524857 
	C693.640137,177.981735 689.143921,182.066650 684.392151,186.394287 
z"/>
<path fill="#F2F1F1" opacity="1.000000" stroke="none" 
	d="
M104.226913,599.535278 
	C104.886467,596.893311 105.469040,594.684998 106.034142,592.542969 
	C110.492760,592.542969 114.567322,592.542969 119.938942,592.542969 
	C117.112129,598.342834 114.890259,603.617310 111.973282,608.474365 
	C111.029991,610.044983 108.262093,610.519836 106.328796,611.495850 
	C105.504654,609.638367 104.328667,607.848267 103.956596,605.904297 
	C103.593582,604.007690 104.052086,601.953796 104.226913,599.535278 
z"/>
<path fill="#FCFBFB" opacity="1.000000" stroke="none" 
	d="
M116.725967,589.084412 
	C113.305374,589.085754 110.342834,589.085754 106.109398,589.085754 
	C108.843689,583.242126 110.960747,577.942261 113.811676,573.072021 
	C114.730492,571.502441 117.581100,571.063782 119.547974,570.107727 
	C120.429672,572.067871 122.005585,574.015442 122.041573,575.990967 
	C122.106804,579.571838 121.487457,583.225830 120.638680,586.724304 
	C120.394524,587.730713 118.384445,588.308655 116.725967,589.084412 
z"/>
</svg>